<?xml version="1.0" standalone="no"?>
<!DOCTYPE svg PUBLIC "-//W3C//DTD SVG 20010904//EN"
 "http://www.w3.org/TR/2001/REC-SVG-20010904/DTD/svg10.dtd">
<svg version="1.0" xmlns="http://www.w3.org/2000/svg"
 width="933.680416pt" height="1023.799553pt" viewBox="0 0 933.680416 1023.799553"
 preserveAspectRatio="xMidYMid meet">
<metadata>
Created by potrace 1.16, written by Peter Selinger 2001-2019
</metadata>
<g transform="translate(-45.352473,1023.839584) scale(0.100000,-0.100000)"
fill="#000000" stroke="none">
<path d="M5015 10233 c-371 -33 -576 -66 -859 -138 -406 -103 -809 -267 -1176
-478 -925 -533 -1653 -1363 -2099 -2394 -201 -463 -338 -985 -390 -1478 -50
-468 -50 -798 0 -1250 107 -980 513 -1941 1152 -2725 440 -540 1031 -1008
1641 -1300 567 -271 1124 -418 1746 -460 675 -45 1371 70 2030 337 169 68 488
228 643 322 613 371 1142 877 1559 1491 176 258 365 605 476 869 l52 124 0
198 0 199 -1195 0 -1195 0 0 -350 0 -350 -2095 0 -2095 0 1 403 0 402 285 315
c157 173 341 376 408 450 255 280 565 623 696 771 41 46 109 120 150 164 41
44 221 242 400 440 179 197 364 402 412 454 l86 96 -296 5 c-163 3 -692 5
-1174 5 l-878 0 0 518 0 517 2000 0 c1100 0 2003 1 2008 3 4 1 9 -180 12 -402
l5 -405 1230 0 1230 -1 3 268 2 268 -61 137 c-324 723 -746 1305 -1299 1791
-334 293 -619 488 -995 681 -671 342 -1392 514 -2145 508 -129 -1 -253 -3
-275 -5z"/>
<path d="M6915 6133 c-137 -153 -441 -489 -675 -748 -234 -258 -513 -567 -619
-685 -106 -118 -230 -255 -275 -304 -44 -49 -165 -182 -267 -295 l-187 -206
1136 -3 c624 -1 1137 -1 1139 1 2 2 2 569 1 1261 l-3 1256 -250 -277z"/>
<path d="M7987 6093 c-4 -3 -7 -469 -7 -1035 l0 -1028 845 0 845 0 0 200 0
200 -590 0 -590 0 2 233 3 232 500 1 500 1 0 189 0 189 -502 3 -503 2 0 215 0
215 570 0 570 0 -2 193 -3 192 -816 3 c-448 1 -819 -1 -822 -5z"/>
</g>
</svg>
