<?xml version="1.0" standalone="no"?>
<!DOCTYPE svg PUBLIC "-//W3C//DTD SVG 20010904//EN"
 "http://www.w3.org/TR/2001/REC-SVG-20010904/DTD/svg10.dtd">
<svg version="1.0" xmlns="http://www.w3.org/2000/svg"
 width="1360.000000pt" height="1360.000000pt" viewBox="0 0 1360.000000 1360.000000"
 preserveAspectRatio="xMidYMid meet">
<metadata>
Created by potrace 1.16, written by Peter Selinger 2001-2019
</metadata>
<g transform="translate(0.000000,1360.000000) scale(0.100000,-0.100000)"
fill="#000000" stroke="none">
<path d="M3609 13529 c-529 -305 -1051 -710 -1510 -1176 -279 -282 -428 -453
-637 -731 -625 -831 -1064 -1723 -1341 -2727 -38 -139 -65 -252 -96 -407 l-25
-121 0 -1569 0 -1568 25 -114 c65 -301 206 -790 300 -1041 254 -679 504 -1163
912 -1768 458 -680 1064 -1308 1756 -1819 198 -146 589 -398 724 -467 l42 -21
3376 0 c3117 0 3378 1 3408 16 162 84 521 319 765 501 729 544 1322 1177 1827
1948 134 206 326 538 434 752 l31 62 0 583 0 584 -1592 -3 c-876 -1 -1624 -2
-1663 -3 l-70 0 3 -525 2 -525 -3147 2 -3148 3 -2 598 -2 597 47 52 c26 29 70
77 97 108 28 30 68 75 89 100 22 25 69 77 105 115 36 39 98 106 136 150 39 44
95 106 125 140 51 54 170 188 260 289 19 22 73 81 119 130 46 50 131 145 189
211 58 66 124 138 146 160 23 22 88 94 146 160 57 66 131 149 165 185 33 36
94 104 135 150 41 47 102 114 135 150 34 36 117 128 185 205 68 77 156 174
195 215 40 41 92 98 116 125 25 28 124 136 220 241 96 104 228 250 294 324 66
74 168 186 226 250 58 63 121 133 140 154 19 22 84 94 144 161 188 207 245
272 245 279 0 3 -793 7 -1762 8 l-1763 3 0 775 0 775 3018 3 3017 2 1 -22 c0
-13 1 -285 0 -605 l0 -583 1724 0 1725 0 0 682 0 682 -93 175 c-380 713 -828
1319 -1376 1860 -348 344 -719 649 -1094 900 -107 71 -402 253 -464 284 -30
16 -291 17 -3436 17 l-3403 0 -125 -71z"/>
<path d="M9749 8548 c-90 -101 -189 -210 -219 -243 -31 -33 -119 -130 -195
-215 -77 -85 -160 -177 -186 -205 -25 -27 -84 -93 -130 -145 -82 -93 -220
-246 -383 -425 -46 -49 -171 -189 -280 -310 -109 -121 -242 -267 -295 -325
-54 -58 -135 -148 -180 -200 -46 -52 -88 -100 -95 -105 -6 -6 -45 -48 -86 -95
-41 -47 -77 -87 -80 -90 -3 -3 -46 -50 -95 -105 -152 -170 -245 -274 -370
-409 -67 -72 -165 -180 -219 -241 -55 -60 -125 -137 -156 -170 -31 -33 -105
-116 -165 -185 l-109 -125 1703 -3 c938 -1 1707 0 1709 3 8 8 9 3775 2 3775
-4 0 -81 -82 -171 -182z"/>
<path d="M11145 8260 c-7 -11 -5 -3036 2 -3067 l5 -23 1224 0 1224 0 0 295 0
295 -847 2 -848 3 -3 347 -2 348 756 2 756 3 0 285 -1 285 -755 3 -756 2 0
320 0 320 850 0 850 0 0 295 0 295 -1225 0 c-745 0 -1226 -4 -1230 -10z"/>
</g>
</svg>
