<?xml version="1.0" standalone="no"?>
<!DOCTYPE svg PUBLIC "-//W3C//DTD SVG 20010904//EN"
 "http://www.w3.org/TR/2001/REC-SVG-20010904/DTD/svg10.dtd">
<svg version="1.0" xmlns="http://www.w3.org/2000/svg"
 width="2816.000000pt" height="1536.000000pt" viewBox="0 0 2816.000000 1536.000000"
 preserveAspectRatio="xMidYMid meet">
<metadata>
Created by potrace 1.16, written by Peter Selinger 2001-2019
</metadata>
<g transform="translate(0.000000,1536.000000) scale(0.100000,-0.100000)"
fill="#000000" stroke="none">
<path d="M6835 15349 c-408 -36 -701 -76 -965 -130 -578 -120 -1141 -314
-1675 -579 -745 -369 -1362 -815 -1946 -1407 -354 -358 -582 -634 -867 -1050
-673 -985 -1130 -2146 -1291 -3283 -22 -154 -51 -435 -73 -690 -17 -201 -17
-894 0 -1090 69 -791 153 -1220 380 -1940 123 -390 351 -917 558 -1290 160
-290 244 -427 431 -703 458 -680 1064 -1308 1756 -1819 471 -348 1033 -658
1582 -875 407 -161 961 -318 1365 -387 521 -90 1138 -125 1620 -92 352 24 780
83 1025 141 369 88 531 131 670 180 55 20 136 47 180 61 146 47 458 175 640
262 481 230 834 441 1233 739 729 544 1322 1177 1827 1948 269 411 555 962
720 1385 20 52 56 145 80 205 56 146 128 375 120 383 -5 5 -3152 7 -3710 3
l-70 -1 3 -525 2 -525 -3147 2 -3148 3 -2 598 -2 597 47 52 c26 29 70 77 97
108 28 30 68 75 89 100 22 25 69 77 105 115 36 39 98 106 136 150 39 44 95
106 125 140 51 54 170 188 260 289 19 22 73 81 119 130 46 50 131 145 189 211
58 66 124 138 146 160 23 22 88 94 146 160 57 66 131 149 165 185 33 36 94
104 135 150 41 47 102 114 135 150 34 36 117 128 185 205 68 77 156 174 195
215 40 41 92 98 116 125 25 28 124 136 220 241 96 104 228 250 294 324 66 74
168 186 226 250 58 63 121 133 140 154 19 22 84 94 144 161 188 207 245 272
245 279 0 3 -793 7 -1762 8 l-1763 3 0 775 0 775 3018 3 3017 2 1 -22 c0 -13
1 -285 0 -605 l0 -583 1984 0 c1092 0 1985 4 1985 8 0 8 -26 94 -102 337 -179
572 -532 1297 -904 1856 -504 758 -1141 1424 -1859 1946 -472 342 -1035 649
-1570 855 -179 69 -505 180 -655 222 -372 105 -850 191 -1290 232 -202 19
-894 28 -1055 13z"/>
<path d="M9899 9428 c-90 -101 -189 -210 -219 -243 -31 -33 -119 -130 -195
-215 -77 -85 -160 -177 -186 -205 -25 -27 -84 -93 -130 -145 -82 -93 -220
-246 -383 -425 -46 -49 -171 -189 -280 -310 -109 -121 -242 -267 -295 -325
-54 -58 -135 -148 -180 -200 -46 -52 -88 -100 -95 -105 -6 -6 -45 -48 -86 -95
-41 -47 -77 -87 -80 -90 -3 -3 -46 -50 -95 -105 -152 -170 -245 -274 -370
-409 -67 -72 -165 -180 -219 -241 -55 -60 -125 -137 -156 -170 -31 -33 -105
-116 -165 -185 l-109 -125 1703 -3 c938 -1 1707 0 1709 3 8 8 9 3775 2 3775
-4 0 -81 -82 -171 -182z"/>
<path d="M11295 9140 c-7 -11 -5 -3036 2 -3067 l5 -23 1264 0 1264 0 0 295 0
295 -887 2 -888 3 -3 347 -2 348 756 2 756 3 0 285 -1 285 -755 3 -756 2 0
320 0 320 855 0 855 0 -2 293 -3 292 -1227 2 c-754 2 -1229 -1 -1233 -7z"/>
<path d="M14393 9143 c-10 -4 -13 -323 -13 -1549 l0 -1544 375 0 375 0 0 926
c0 509 4 924 8 922 12 -4 270 -304 467 -543 88 -106 187 -223 394 -465 101
-118 204 -240 230 -270 25 -30 62 -73 82 -95 19 -22 82 -96 139 -165 57 -69
140 -167 184 -217 l81 -93 323 0 322 0 0 1544 0 1544 -42 4 c-38 4 -149 4
-590 -1 l-118 -1 -1 -927 0 -928 -27 34 c-15 18 -54 66 -88 105 -33 39 -130
154 -215 255 -251 301 -427 510 -539 640 -58 67 -121 142 -140 165 -100 123
-365 433 -493 578 l-78 88 -312 -1 c-172 0 -318 -3 -324 -6z"/>
<path d="M17808 9142 l-48 -3 0 -300 0 -299 505 0 c474 0 505 -1 505 -17 0
-10 0 -570 0 -1244 0 -674 2 -1227 4 -1230 2 -2 173 -3 380 -1 l376 2 0 1245
0 1245 510 0 510 0 0 300 0 300 -22 2 c-41 3 -2672 3 -2720 0z"/>
<path d="M20960 7599 l0 -1549 383 0 382 0 0 1545 0 1545 -30 1 c-16 1 -189 3
-382 4 l-353 3 0 -1549z"/>
<path d="M22140 8843 l0 -304 253 1 c138 0 366 0 505 0 l252 0 0 -1245 0
-1245 380 0 380 0 0 1245 0 1245 443 1 c382 0 507 2 565 8 9 1 12 67 12 295
l0 294 -82 4 c-46 3 -674 5 -1395 4 l-1313 0 0 -303z"/>
<path d="M25017 9140 l-68 -5 69 -110 c38 -60 132 -211 209 -335 139 -224 193
-310 473 -760 80 -129 190 -307 245 -395 54 -88 129 -210 167 -271 l68 -110 0
-552 0 -552 383 0 382 0 2 554 2 554 49 79 c27 43 106 173 177 288 466 765
645 1055 904 1472 46 73 80 136 78 140 -5 8 -753 10 -761 2 -2 -2 -44 -71 -94
-154 -49 -82 -126 -211 -172 -285 -46 -74 -125 -204 -176 -288 -231 -378 -367
-591 -375 -587 -4 3 -28 38 -52 78 -110 179 -398 645 -477 772 -48 77 -129
208 -180 290 -51 83 -99 157 -106 166 -12 13 -57 15 -346 15 -183 0 -364 -3
-401 -6z"/>
</g>
</svg>
